<?xml version="1.0" encoding="UTF-8" standalone="no"?>
<svg
   xmlns:dc="http://purl.org/dc/elements/1.1/"
   xmlns:cc="http://creativecommons.org/ns#"
   xmlns:rdf="http://www.w3.org/1999/02/22-rdf-syntax-ns#"
   xmlns:svg="http://www.w3.org/2000/svg"
   xmlns="http://www.w3.org/2000/svg"
   xmlns:sodipodi="http://sodipodi.sourceforge.net/DTD/sodipodi-0.dtd"
   xmlns:inkscape="http://www.inkscape.org/namespaces/inkscape"
   sodipodi:docname="chademo_fa.svg"
   inkscape:version="1.0 (1.0+r73+1)"
   id="svg8"
   version="1.1"
   viewBox="0 0 152.39999 135.46667"
   height="135.46667mm"
   width="152.39999mm">
  <defs
     id="defs2" />
  <sodipodi:namedview
     fit-margin-bottom="0"
     fit-margin-right="0"
     fit-margin-left="0"
     fit-margin-top="0"
     inkscape:window-maximized="1"
     inkscape:window-y="27"
     inkscape:window-x="1352"
     inkscape:window-height="960"
     inkscape:window-width="1208"
     showgrid="false"
     inkscape:document-rotation="0"
     inkscape:current-layer="layer1"
     inkscape:document-units="mm"
     inkscape:cy="552.48089"
     inkscape:cx="-154.26667"
     inkscape:zoom="0.35"
     inkscape:pageshadow="2"
     inkscape:pageopacity="0.0"
     borderopacity="1.0"
     bordercolor="#666666"
     pagecolor="#ffffff"
     id="base" />
  <metadata
     id="metadata5">
    <rdf:RDF>
      <cc:Work
         rdf:about="">
        <dc:format>image/svg+xml</dc:format>
        <dc:type
           rdf:resource="http://purl.org/dc/dcmitype/StillImage" />
        <dc:title></dc:title>
      </cc:Work>
    </rdf:RDF>
  </metadata>
  <g
     transform="translate(-1.1288903,-1.9894302)"
     id="layer1"
     inkscape:groupmode="layer"
     inkscape:label="Layer 1">
    <path
       style="fill:#f23d3d;fill-opacity:1;stroke-width:0.264583"
       fill="currentColor"
       d="M 90.02889,120.52276 H 5.3622233 c -2.338916,0 -4.233333,1.89442 -4.233333,4.23334 v 8.46666 c 0,2.33892 1.894417,4.23334 4.233333,4.23334 H 90.02889 c 2.338917,0 4.233333,-1.89442 4.233333,-4.23334 v -8.46666 c 0,-2.33892 -1.894416,-4.23334 -4.233333,-4.23334 z m 55.03333,-84.666662 v -12.7 c 0,-2.338917 -1.89441,-4.233334 -4.23333,-4.233334 -2.33892,0 -4.23333,1.894417 -4.23333,4.233334 v 12.7 h -8.46667 v -12.7 c 0,-2.338917 -1.89442,-4.233334 -4.23333,-4.233334 -2.33892,0 -4.23334,1.894417 -4.23334,4.233334 v 12.7 h -4.23333 c -2.33892,0 -4.23333,1.894416 -4.23333,4.233333 v 8.466667 c 0,9.4615 6.24945,17.380479 14.81666,20.089812 v 31.350479 c 0,3.690941 -2.51354,7.122581 -6.15421,7.723191 -4.6355,0.76464 -8.66245,-2.80988 -8.66245,-7.30515 v -7.408332 c 0,-12.85875 -10.42459,-23.283334 -23.283337,-23.283334 h -2.116666 v -50.8 c 0,-9.3530213 -7.580313,-16.9333338 -16.933334,-16.9333338 H 26.52889 c -9.353021,0 -16.9333331,7.5803125 -16.9333331,16.9333338 V 112.0561 H 85.795557 V 82.422764 h 2.116666 c 5.844646,0 10.583334,4.738688 10.583334,10.583334 v 6.511395 c 0,10.496017 7.651753,19.886087 18.100143,20.904727 11.98563,1.17211 22.11652,-8.25764 22.11652,-20.00779 V 68.64591 c 8.56721,-2.709333 14.81667,-10.628312 14.81667,-20.089812 v -8.466667 c 0,-2.338917 -1.89442,-4.233333 -4.23333,-4.233333 z m -75.117851,12.6365 -24.791458,36.777083 c -0.582084,0.881062 -1.643063,1.386417 -2.749021,1.386417 -2.029354,0 -3.563938,-1.661584 -3.087688,-3.418417 L 45.406911,61.256098 H 29.70389 c -1.918229,0 -3.399896,-1.479021 -3.145896,-3.145896 l 4.233333,-28.310417 c 0.209021,-1.378479 1.553105,-2.410354 3.145896,-2.410354 H 51.92889 c 2.084917,0 3.603625,1.730375 3.069167,3.495146 L 51.92889,44.322764 h 15.266458 c 2.44475,0 3.971396,2.323042 2.749021,4.169834 z"
       id="path10" />
  </g>
</svg>
